ffmpeg version 3.4.8-0ubuntu0.2 Copyright (c) 2000-2020 the FFmpeg developers
  built with gcc 7 (Ubuntu 7.5.0-3ubuntu1~18.04)
  configuration: --prefix=/usr --extra-version=0ubuntu0.2 --toolchain=hardened --libdir=/usr/lib/x86_64-linux-gnu --incdir=/usr/include/x86_64-linux-gnu --enable-gpl --disable-stripping --enable-avresample --enable-avisynth --enable-gnutls --enable-ladspa --enable-libass --enable-libbluray --enable-libbs2b --enable-libcaca --enable-libcdio --enable-libflite --enable-libfontconfig --enable-libfreetype --enable-libfribidi --enable-libgme --enable-libgsm --enable-libmp3lame --enable-libmysofa --enable-libopenjpeg --enable-libopenmpt --enable-libopus --enable-libpulse --enable-librubberband --enable-librsvg --enable-libshine --enable-libsnappy --enable-libsoxr --enable-libspeex --enable-libssh --enable-libtheora --enable-libtwolame --enable-libvorbis --enable-libvpx --enable-libwavpack --enable-libwebp --enable-libx265 --enable-libxml2 --enable-libxvid --enable-libzmq --enable-libzvbi --enable-omx --enable-openal --enable-opengl --enable-sdl2 --enable-libdc1394 --enable-libdrm --enable-libiec61883 --enable-chromaprint --enable-frei0r --enable-libopencv --enable-libx264 --enable-shared
  libavutil      55. 78.100 / 55. 78.100
  libavcodec     57.107.100 / 57.107.100
  libavformat    57. 83.100 / 57. 83.100
  libavdevice    57. 10.100 / 57. 10.100
  libavfilter     6.107.100 /  6.107.100
  libavresample   3.  7.  0 /  3.  7.  0
  libswscale      4.  8.100 /  4.  8.100
  libswresample   2.  9.100 /  2.  9.100
  libpostproc    54.  7.100 / 54.  7.100
[rawvideo @ 0x558f692fea20] Estimating duration from bitrate, this may be inaccurate
Input #0, rawvideo, from '../../SVC-Encoder-20220109T061506Z-001/SVC-Encoder/Dataset/RollerCoaster/ERP_8x8/tile_yuv/Tile_31_480x240.yuv':
  Duration: 00:00:10.00, start: 0.000000, bitrate: 41472 kb/s
    Stream #0:0: Video: rawvideo (I420 / 0x30323449), yuv420p, 480x240, 41472 kb/s, 30 tbr, 30 tbn, 30 tbc
Stream mapping:
  Stream #0:0 -> #0:0 (rawvideo (native) -> h264 (libx264))
Press [q] to stop, [?] for help
[libx264 @ 0x558f6930bc60] using cpu capabilities: MMX2 SSE2Fast LZCNT SSSE3 SSE4.2 AVX
[libx264 @ 0x558f6930bc60] profile High, level 2.1
Output #0, rawvideo, to 'RollerCoaster_Tile_31_480x240_x264_QP_40.h264':
  Metadata:
    encoder         : Lavf57.83.100
    Stream #0:0: Video: h264 (libx264), yuv420p, 480x240, q=-1--1, 30 fps, 30 tbn, 30 tbc
    Metadata:
      encoder         : Lavc57.107.100 libx264
    Side data:
      cpb: bitrate max/min/avg: 0/0/0 buffer size: 0 vbv_delay: -1
frame=  133 fps=0.0 q=46.0 PSNR=Y:nan U:nan V:nan *:nan size=      16kB time=00:00:03.00 bitrate=  43.0kbits/s speed=5.99x    frame=  300 fps=0.0 q=46.0 LPSNR=Y:inf U:inf V:inf *:inf size=      45kB time=00:00:09.93 bitrate=  37.1kbits/s speed=10.7x    
video:45kB audio:0kB subtitle:0kB other streams:0kB global headers:0kB muxing overhead: 0.000000%
[libx264 @ 0x558f6930bc60] frame I:2     Avg QP:37.67  size:  3752  PSNR Mean Y:30.76 U:41.66 V:45.00 Avg:32.39 Global:32.32
[libx264 @ 0x558f6930bc60] frame P:76    Avg QP:39.86  size:   312  PSNR Mean Y:29.78 U:41.66 V:43.98 Avg:31.43 Global:31.42
[libx264 @ 0x558f6930bc60] frame B:222   Avg QP:45.49  size:    67  PSNR Mean Y:29.51 U:41.58 V:43.96 Avg:31.16 Global:31.15
[libx264 @ 0x558f6930bc60] consecutive B-frames:  1.0%  0.7%  1.0% 97.3%
[libx264 @ 0x558f6930bc60] mb I  I16..4: 33.4% 63.0%  3.6%
[libx264 @ 0x558f6930bc60] mb P  I16..4:  0.6%  0.5%  0.1%  P16..4: 28.5%  1.6%  0.2%  0.0%  0.0%    skip:68.5%
[libx264 @ 0x558f6930bc60] mb B  I16..4:  0.0%  0.0%  0.0%  B16..8: 10.2%  0.2%  0.0%  direct: 0.0%  skip:89.6%  L0:37.1% L1:62.8% BI: 0.1%
[libx264 @ 0x558f6930bc60] 8x8 transform intra:57.4% inter:91.6%
[libx264 @ 0x558f6930bc60] coded y,uvDC,uvAC intra: 52.4% 40.9% 2.0% inter: 0.8% 0.5% 0.0%
[libx264 @ 0x558f6930bc60] i16 v,h,dc,p: 20% 20% 35% 24%
[libx264 @ 0x558f6930bc60] i8 v,h,dc,ddl,ddr,vr,hd,vl,hu: 12% 15% 31%  6%  6%  7%  9%  5%  9%
[libx264 @ 0x558f6930bc60] i4 v,h,dc,ddl,ddr,vr,hd,vl,hu: 22% 18% 31%  4%  7%  5%  5%  4%  4%
[libx264 @ 0x558f6930bc60] i8c dc,h,v,p: 78% 11%  9%  1%
[libx264 @ 0x558f6930bc60] Weighted P-Frames: Y:0.0% UV:0.0%
[libx264 @ 0x558f6930bc60] ref P L0: 68.7% 14.6% 12.5%  4.3%
[libx264 @ 0x558f6930bc60] ref B L0: 72.9% 21.1%  5.9%
[libx264 @ 0x558f6930bc60] ref B L1: 77.5% 22.5%
[libx264 @ 0x558f6930bc60] PSNR Mean Y:29.585 U:41.601 V:43.972 Avg:31.239 Global:31.222 kb/s:36.83
